<?xml version="1.0" encoding="UTF-8"?>
<svg id="Layer_2" xmlns="http://www.w3.org/2000/svg" version="1.1" viewBox="0 0 2293.9 223.5">
  <!-- Generator: Adobe Illustrator 29.3.1, SVG Export Plug-In . SVG Version: 2.1.0 Build 151)  -->
  <defs>
    <style>
      .st0 {
        fill: #fff;
      }
    </style>
  </defs>
  <g id="objects">
    <path class="st0" d="M211.8,97.6l65.1-69.6h-24.7l-51.1,54.7-39.1-54.7h-67.6l68.5,95.6-68.5,73.2h24.7l54.5-58.3,41.7,58.3h67.6l-71-99.2h0ZM129.1,45.9h23.6l95.3,133h-23.6L129.1,45.9Z"/>
    <path class="st0" d="M550.1,44.2h-138.7c-13.7,0-24.8,11.1-24.8,24.8v86.8c0,13.7,11.1,24.8,24.8,24.8h138.7c13.7,0,24.8-11.1,24.8-24.8v-86.8c0-13.7-11.1-24.8-24.8-24.8ZM503,118.4l-38.6,19.3c-4.5,2.2-9.7-1-9.7-6v-38.6c0-5,5.2-8.2,9.7-6l38.6,19.3c4.9,2.5,4.9,9.5,0,12Z"/>
    <path class="st0" d="M806.7,27.9h-87.4c-22.5,0-40.8,18.3-40.8,40.8v87.4c0,22.5,18.3,40.8,40.8,40.8h87.4c22.5,0,40.8-18.3,40.8-40.8v-87.4c0-22.5-18.3-40.8-40.8-40.8ZM832.9,153.1c0,16.1-13,29.1-29.1,29.1h-81.5c-16.1,0-29.1-13-29.1-29.1v-81.5c0-16.1,13-29.1,29.1-29.1h81.5c16.1,0,29.1,13,29.1,29.1v81.5Z"/>
    <path class="st0" d="M763.1,68.7c-24.1,0-43.7,19.6-43.7,43.7s19.6,43.7,43.7,43.7,43.7-19.6,43.7-43.7-19.6-43.7-43.7-43.7h0ZM763.1,141.5c-16,0-29.1-13.1-29.1-29.1s13.1-29.1,29.1-29.1,29.1,13.1,29.1,29.1-13.1,29.1-29.1,29.1Z"/>
    <path class="st0" d="M809.7,74.5c-4.8,0-8.7-3.9-8.7-8.7s3.9-8.7,8.7-8.7,8.7,3.9,8.7,8.7-3.9,8.7-8.7,8.7Z"/>
    <path class="st0" d="M1050.7,106.8c.4,0,.3,0,.4-.2.7-1.1,1.3-2.8,2-4,4.7-8.6,10.2-17,15.9-24.9,13.3-18.4,37.4-47.3,60.4-52.2,18.3-4,21.7,9.1,20.9,24.1-.6,12.1-1.7,24.8-3,37-1.2,11-1.7,20.8-8.6,29.9-10.5,13.9-29.1,17.5-45.6,15.7l6.6,1.7c15.2,4.2,33.2,14.6,28.1,33.3-3.2,11.7-18.2,25.8-29.1,30.6-23.4,10.3-37-13-44.1-31.4-1.2-3-2.1-6.4-3.3-9.3,0-.2-.3-1.1-.7-.8-1.2,3.4-2.3,6.8-3.6,10.2-9.1,23.6-25.3,45.8-52.2,26.7-8.1-5.8-18.3-16.1-21-25.9-4.9-17.9,11.5-28.3,26.2-32.7l8.5-2.3c-1.1,0-2.2.3-3.3.3-16.7.9-34.5-3.5-43.9-18.4-4.6-7.2-5.4-14.1-6.4-22.4-1-8.8-1.8-17.9-2.5-26.8-.5-6-1.1-12.6-1.3-18.7-.3-16.7,7.2-25.2,24.3-19.9,22.9,7.1,46.4,35.9,59.9,55.1,5.6,8.1,11.1,16.6,15.3,25.5h0Z"/>
    <path class="st0" d="M1365.5,105.2c.8.3,1.5.7,2.2,1,10.3,5,17.9,12.4,21.8,21.7,5.6,12.9,6.1,33.9-10.7,50.6-12.8,12.8-28.4,18.6-50.4,18.7h-.1c-24.8-.2-43.9-8.5-56.7-24.8-11.4-14.5-17.3-34.7-17.5-59.9v-.2c.2-25.3,6-45.4,17.5-59.9,12.8-16.3,31.9-24.6,56.7-24.8h.1c24.8.2,44.1,8.5,57.4,24.7,6.5,8,11.3,17.7,14.3,28.9l-14.3,3.8c-2.5-9.1-6.3-16.9-11.4-23.1-10.3-12.7-25.8-19.2-46.1-19.3-20.1.2-35.4,6.6-45.3,19.2-9.3,11.8-14.1,28.8-14.2,50.6.2,21.8,5,38.8,14.2,50.6,9.9,12.6,25.2,19,45.3,19.2,18.2-.1,30.2-4.5,40.2-14.5,11.4-11.4,11.2-25.4,7.6-33.9-2.2-5-6-9.2-11.3-12.3-1.3,9.5-4.2,17.1-8.7,22.9-6,7.7-14.6,11.9-25.7,12.5-8.3.5-16.4-1.6-22.6-5.7-7.3-4.9-11.7-12.3-12.1-21-.9-17.1,12.6-29.3,33.6-30.5,7.5-.4,14.5-.1,20.9,1-.9-5.2-2.6-9.4-5.2-12.4-3.5-4.1-9.1-6.3-16.3-6.3h-.3c-5.9,0-13.8,1.6-18.8,9.3l-12.2-8.3c6.8-10.3,17.8-15.9,31-15.9h.3c22.1.1,35.3,14,36.6,38.1h0c0,0,0,0,0,0h0ZM1310.3,129.5c.5,8.9,10,13,19.3,12.5,9.1-.5,19.3-4,21-25.9-4.7-1-9.8-1.6-15.3-1.6s-3.4,0-5.1.1c-15.2.9-20.2,8.2-19.9,14.8h0s0,0,0,0Z"/>
    <path class="st0" d="M1610.2,153c12.1-1,25.1-5,32.4-15.3,7.9-11,10.1-30.9,4.2-43.1-.8-1.7-5.6-7.9-5.7-8.4,0-.3,1.5-5.2,1.6-6.6.2-2.8-.4-14.9-2.8-16.3s-10.4,1.5-13,2.6c-3.9,1.7-7.2,4.2-11,6.1-14.4-3.6-29.2-3.5-43.6,0-4.8-2.5-9.4-5.8-14.6-7.5-1.8-.6-8.7-2.4-9.8-1-1,1.3-2.4,8.9-2.5,10.7-.3,4.4.6,8.2,1.6,12.4-9.2,9.6-10.2,23.9-7.6,36.5,4,19.6,18.6,27.9,37.4,29.9.4,0,1.4-.3,1,.6-.1.3-1.2,1.1-1.6,1.7-.8,1.1-1.6,2.5-2.1,3.7-.6,1.4-1.4,5.5-1.9,6-2.1,1.9-9.8,2.3-12.5,2-13.1-1.3-13.8-20-27.9-18.3-6.7.8,2.7,6,4,7.3,6,5.6,6.2,14.1,13.3,18.7,6.7,4.3,15.3,4.1,22.8,2.3-.2,3.8.2,7.7,0,11.4,0,1.5-.4,6-.9,7-2.6,5.1-11.7.3-15.5-1.5-62.6-28.7-70-112.3-13.7-152,43.7-30.8,101.5-11.5,126.6,32.9,23.9,42.3,6,99.8-38.5,119.7-4.6,2-14.3,6.9-14.4-2-.2-11.1,2.2-23-1.6-33.7l-3.8-6h0Z"/>
    <g id="_65MVKZ">
      <path class="st0" d="M1877.1,21.8c.2.3.6.2.8.2,11.2.1,23.4.4,34.4,2.1,19.4,3.1,37.3,17.7,39.8,37.9,1.4,11.7.6,25.6.3,37.6-.2,10.6.3,21.7-3.3,31.8-9.6,27.2-38.7,29.2-63.5,30.2-17,.7-33.9.6-50.4-3.7-.6-.1-.5.6-.5,1.1.6,9,4.3,16.7,12.6,20.6,11.6,5.4,32.3,3,44.7.7,2.1-.4,5.5-1.5,7.5-1.6.2,0,.7,0,.7.2v14c-3,2.2-6.5,3.6-10,4.8-6.9,2.4-14,3.9-21.3,4.7l-5.7.5c-3,0-5.9.1-8.9,0-22.2-.9-45.6-9.5-58.6-28.4-5.3-7.7-6.9-15.1-8.5-24.2-3.4-18.5-3.6-37.3-4.1-56.1-.5-17.7-1.6-36.2,10-51,15.4-19.7,39.4-20.9,62.6-21.4h21.4ZM1813.2,132.1h19v-47.2c.1-7.7,2.9-14.2,11.4-14.7,10.3-.6,14.5,6.2,15,15.6v27.8h19v-28c.5-9.3,4.8-16.1,15-15.5,12.8.8,11.3,14,11.4,23.3.2,12.9-.1,25.7,0,38.6h19v-50.8c-.8-18.2-11.8-31.1-30.9-29.8-5.6.4-11.3,2.7-15.4,6.5-3.7,3.5-5.9,8.3-8.5,12.6h-.3c-3-5.2-5.7-10.7-10.7-14.4-4.7-3.4-10.3-4.8-16.1-4.8-17.5,0-27.2,13-28,29.6v51.1h0Z"/>
    </g>
  </g>
  <path class="st0" d="M2171.8,22c31.7-1.5,70.9,8.4,80.3,42.9,6,21.9-5.1,46.7-24.6,57.8-17.1,9.8-36.4,7.5-50.5,23.6-14.3,16.4-17.4,50.8-41.7,55.9-32.1,6.7-42.4-35.5-45.1-59.1-7.5-65.5,6.5-117.7,81.6-121.2Z"/>
</svg>